Coordinates
nRows=443
nColumns=2
inDegrees=yes
endheader
time	ankle_angle_r	
12.2087	  5.157351	
12.2419	  5.172729	
12.2752	  5.127100	
12.3085	  5.142552	
12.3417	  5.157471	
12.375	  5.142575	
12.4083	  5.218046	
12.4415	  5.156914	
12.4748	  5.140905	
12.5081	  5.217756	
12.5413	  5.128646	
12.5746	  5.156528	
12.6079	  5.189028	
12.6411	  5.172729	
12.6744	  5.187988	
12.7077	  5.217175	
12.7409	  5.171303	
12.7742	  5.152900	
12.8075	  5.215265	
12.8407	  5.187988	
12.874	  5.138585	
12.9073	  5.199427	
12.9405	  5.130967	
12.9738	  5.138005	
13.0071	  5.185788	
13.0403	  5.098732	
13.0736	  5.109301	
13.1069	  5.109204	
13.1401	  5.017555	
13.1734	  5.032717	
13.2067	  5.088094	
13.2399	  5.090681	
13.2732	  5.059970	
13.3065	  5.053730	
13.3397	  5.050659	
13.373	  5.108430	
13.4062	  5.115055	
13.4395	  5.111694	
13.4728	  5.123399	
13.506	  5.065918	
13.5393	  5.054407	
13.5726	  5.145939	
13.6058	  5.146152	
13.6391	  5.164655	
13.6724	  5.176864	
13.7056	  5.157471	
13.7389	  5.131280	
13.7722	  5.203247	
13.8054	  5.218506	
13.8387	  5.177347	
13.872	  5.234881	
13.9052	  5.223317	
13.9385	  5.182545	
13.9718	  5.249023	
14.005	  5.249023	
14.0383	  5.193520	
14.0716	  5.233765	
14.1048	  5.268759	
14.1381	  5.214222	
14.1714	  5.214416	
14.2046	  5.233765	
14.2379	  5.178507	
14.2712	  5.218506	
14.3044	  5.172729	
14.3377	  5.184865	
14.371	  5.187988	
14.4042	  5.139475	
14.4375	  5.151113	
14.4708	  5.163925	
14.504	  5.118246	
14.5373	  5.089787	
14.5706	  5.120209	
14.6038	  5.103277	
14.6371	  5.103374	
14.6704	  5.133988	
14.7036	  5.072053	
14.7369	  5.020142	
14.7702	  5.097045	
14.8034	  5.019725	
14.8367	  5.050882	
14.87	  5.050659	
14.9032	  5.035564	
14.9365	  5.065918	
14.9698	  5.096436	
15.003	  5.050659	
15.0363	  5.127891	
15.0696	  5.111694	
15.1028	  5.088144	
15.1361	  5.074306	
15.1694	  5.150697	
15.2026	  5.148889	
15.2359	  5.140114	
15.2692	  5.187988	
15.3024	  5.111694	
15.3357	  5.151180	
15.369	  5.157471	
15.4022	  5.187988	
15.4355	  5.151470	
15.4687	  5.203247	
15.502	  5.166923	
15.5353	  5.176568	
15.5685	  5.216924	
15.6018	  5.172729	
15.6351	  5.147632	
15.6683	  5.203247	
15.7016	  5.157471	
15.7349	  5.152340	
15.7681	  5.193180	
15.8014	  5.152534	
15.8347	  5.147052	
15.8679	  5.163242	
15.9012	  5.120988	
15.9345	  5.100986	
15.9677	  5.122500	
16.001	  5.081177	
16.0343	  4.998144	
16.0675	  5.085340	
16.1008	  5.039467	
16.1341	  5.077828	
16.1673	  5.035400	
16.2006	  5.035400	
16.2339	  5.039080	
16.2671	  5.042567	
16.3004	  5.008369	
16.3337	  5.115084	
16.3669	  5.050659	
16.4002	  5.004883	
16.4335	  5.081177	
16.4667	  5.111694	
16.5	  5.126953	
16.5333	  5.249023	
16.5665	  5.144925	
16.5998	  5.157471	
16.6331	  5.162510	
16.6663	  5.220929	
16.6996	  5.159797	
16.7329	  5.172729	
16.7661	  5.220639	
16.7994	  5.187988	
16.8327	  5.203247	
16.8659	  5.230079	
16.8992	  5.203247	
16.9325	  5.249023	
16.9657	  5.249023	
16.999	  5.217050	
17.0323	  5.247664	
17.0655	  5.236290	
17.0988	  5.217340	
17.1321	  5.233765	
17.1653	  5.233765	
17.1986	  5.218506	
17.2319	  5.248244	
17.2651	  5.219871	
17.2984	  5.217334	
17.3317	  5.233765	
17.3649	  5.233765	
17.3982	  5.141620	
17.4315	  5.172530	
17.4647	  5.157573	
17.498	  5.050653	
17.5312	  5.050659	
17.5645	  5.112069	
17.5978	  5.081461	
17.631	  5.081558	
17.6643	  5.051137	
17.6976	  5.006606	
17.7308	  5.126953	
17.7641	  5.006418	
17.7974	  5.020142	
17.8306	  5.066879	
17.8639	  5.052774	
17.8972	  5.051814	
17.9304	  5.068420	
17.9637	  5.035400	
17.997	  5.053548	
18.0302	  5.130035	
18.0635	  5.130229	
18.0968	  5.172729	
18.13	  5.144043	
18.1633	  5.186060	
18.1966	  5.144237	
18.2298	  5.229522	
18.2631	  5.168293	
18.2964	  5.111694	
18.3296	  5.218506	
18.3629	  5.159979	
18.3962	  5.160075	
18.4294	  5.203247	
18.4627	  5.157471	
18.496	  5.169835	
18.5292	  5.215515	
18.5625	  5.172729	
18.5958	  5.184803	
18.629	  5.206529	
18.6623	  5.177854	
18.6956	  5.153996	
18.7288	  5.226622	
18.7621	  5.145880	
18.7954	  5.130718	
18.8286	  5.157471	
18.8619	  5.142212	
18.8952	  5.096436	
18.9284	  5.122801	
18.9617	  5.103198	
18.995	  5.122608	
19.0282	  5.153029	
19.0615	  5.105512	
19.0948	  5.082530	
19.128	  5.000151	
19.1613	  5.050659	
19.1946	  5.060993	
19.2278	  5.055681	
19.2611	  5.020142	
19.2944	  5.045444	
19.3276	  5.055971	
19.3609	  5.096436	
19.3942	  5.054907	
19.4274	  5.081177	
19.4607	  5.085038	
19.494	  5.115363	
19.5272	  5.163363	
19.5605	  5.166741	
19.5937	  5.172729	
19.627	  5.181806	
19.6603	  5.142212	
19.6935	  5.227389	
19.7268	  5.233765	
19.7601	  5.194557	
19.7933	  5.235693	
19.8266	  5.196485	
19.8599	  5.210106	
19.8931	  5.243416	
19.9264	  5.240817	
19.9597	  5.196098	
19.9929	  5.225751	
20.0262	  5.233765	
20.0595	  5.203628	
20.0927	  5.233952	
20.126	  5.233765	
20.1593	  5.195518	
20.1925	  5.249023	
20.2258	  5.249023	
20.2591	  5.188767	
20.2923	  5.212336	
20.3256	  5.218506	
20.3589	  5.089486	
20.3921	  5.126953	
20.4254	  5.211750	
20.4587	  5.174669	
20.4919	  5.157471	
20.5252	  5.133420	
20.5585	  5.074807	
20.5917	  5.133226	
20.625	  5.105518	
20.6583	  5.050659	
20.6915	  5.099729	
20.7248	  5.099922	
20.7581	  5.004883	
20.7913	  5.062045	
20.8246	  5.069984	
20.8579	  5.060419	
20.8911	  5.086579	
20.9244	  5.126294	
20.9577	  5.075967	
20.9909	  5.142133	
21.0242	  5.111905	
21.0575	  5.147632	
21.0907	  5.192811	
21.124	  5.111694	
21.1573	  5.178730	
21.1905	  5.187988	
21.2238	  5.125002	
21.2571	  5.137873	
21.2903	  5.192231	
21.3236	  5.161616	
21.3569	  5.157471	
21.3901	  5.203247	
21.4234	  5.184133	
21.4567	  5.180470	
21.4899	  5.214844	
21.5232	  5.177291	
21.5565	  5.169261	
21.5897	  5.203247	
21.623	  5.169454	
21.6562	  5.148570	
21.6895	  5.172729	
21.7228	  5.145197	
21.756	  5.157471	
21.7893	  5.126953	
21.8226	  5.086568	
21.8558	  5.037999	
21.8891	  5.142212	
21.9224	  5.114100	
21.9556	  5.081177	
21.9889	  5.063706	
22.0222	  5.063803	
22.0554	  5.004883	
22.0887	  5.111694	
22.122	  5.050659	
22.1552	  5.096436	
22.1885	  5.098067	
22.2218	  5.018606	
22.255	  5.111694	
22.2883	  5.032717	
22.3216	  5.020142	
22.3548	  4.993070	
22.3881	  5.020142	
22.4214	  4.975320	
22.4546	  5.037117	
22.4879	  5.052183	
22.5212	  5.020807	
22.5544	  5.065918	
22.5877	  5.051131	
22.621	  5.005633	
22.6542	  5.065639	
22.6875	  5.065918	
22.7208	  5.035316	
22.754	  5.065895	
22.7873	  5.050876	
22.8206	  4.990034	
22.8538	  5.097039	
22.8871	  5.157072	
22.9204	  5.065423	
22.9536	  5.051843	
22.9869	  5.049971	
23.0202	  5.035400	
23.0534	  5.082941	
23.0867	  5.082155	
23.12	  5.035400	
23.1532	  5.157471	
23.1865	  5.139675	
23.2198	  5.113060	
23.253	  5.203247	
23.2863	  5.213830	
23.3196	  5.155815	
23.3528	  5.170978	
23.3861	  5.231916	
23.4194	  5.157471	
23.4526	  5.218506	
23.4859	  5.220644	
23.5192	  5.172729	
23.5524	  5.231432	
23.5857	  5.233765	
23.619	  5.172729	
23.6522	  5.233765	
23.6855	  5.221225	
23.7187	  5.215690	
23.752	  5.233765	
23.7853	  5.236773	
23.8185	  5.194200	
23.8518	  5.245821	
23.8851	  5.209845	
23.9183	  5.154075	
23.9516	  5.203247	
23.9849	  5.191577	
24.0181	  5.161157	
24.0514	  5.187988	
24.0847	  5.104194	
24.1179	  5.073870	
24.1512	  5.100508	
24.1845	  5.111694	
24.2177	  5.111694	
24.251	  5.105161	
24.2843	  5.105354	
24.3175	  5.026289	
24.3508	  5.055312	
24.3841	  5.055408	
24.4173	  5.014575	
24.4506	  5.060975	
24.4839	  5.055698	
24.5171	  5.045672	
24.5504	  5.122160	
24.5837	  5.035400	
24.6169	  5.061512	
24.6502	  5.117217	
24.6835	  5.035400	
24.7167	  5.065918	
24.75	  5.151658	
24.7833	  5.111694	
24.8165	  5.081177	
24.8498	  5.172729	
24.8831	  5.133153	
24.9163	  5.172729	
24.9496	  5.172729	
24.9829	  5.157471	
25.0161	  5.133540	
25.0494	  5.196564	
25.0827	  5.165950	
25.1159	  5.162841	
25.1492	  5.187988	
25.1825	  5.142212	
25.2157	  5.164637	
25.249	  5.179993	
25.2823	  5.165909	
25.3155	  5.135101	
25.3488	  5.203552	
25.3821	  5.180338	
25.4153	  5.149724	
25.4486	  5.211091	
25.4819	  5.126953	
25.5151	  5.149434	
25.5484	  5.141204	
25.5817	  5.125752	
25.6149	  5.103368	
25.6482	  5.072753	
25.6815	  5.052441	
25.7147	  5.087819	
25.748	  5.068086	
25.7812	  5.035400	
25.8145	  5.072270	
25.8478	  5.087432	
25.881	  5.056818	
25.9143	  5.050659	
25.9476	  5.071883	
25.9808	  5.041269	
26.0141	  5.071690	
26.0474	  5.107786	
26.0806	  5.081177	
26.1139	  5.118363	
26.1472	  5.177218	
26.1804	  5.096436	
26.2137	  5.208122	
26.247	  5.187988	
26.2802	  5.126953	
26.3135	  5.167828	
26.3468	  5.172729	
26.38	  5.157471	
26.4133	  5.187988	
26.4466	  5.233765	
26.4798	  5.209670	
26.5131	  5.244702	
26.5464	  5.249023	
26.5796	  5.199119	
26.6129	  5.237796	
26.6462	  5.271671	
26.6794	  5.214668	
26.7127	  5.233765	
26.746	  5.260637	
26.7792	  5.218506	
26.8125	  5.242121	
26.8458	  5.245669	
26.879	  5.148728	
26.9123	  5.215344	
